<svg xmlns="http://www.w3.org/2000/svg" xmlns:xlink="http://www.w3.org/1999/xlink" width="500" zoomAndPan="magnify" viewBox="0 0 375 374.999991" height="500" preserveAspectRatio="xMidYMid meet" version="1.0"><defs><clipPath id="1a4a884b35"><path d="M 37.5 37.5 L 337.5 37.5 L 337.5 336.75 L 37.5 336.75 Z M 37.5 37.5 " clip-rule="nonzero"/></clipPath></defs><g clip-path="url(#1a4a884b35)"><path fill="#b7aebd" d="M 187.566406 37.597656 C 104.671875 37.597656 37.5 104.851562 37.5 187.839844 C 37.5 262.375 91.808594 324.292969 162.878906 336 L 162.878906 234.148438 L 124.679688 234.148438 L 124.679688 189.53125 L 162.878906 189.53125 L 162.878906 157.140625 C 162.878906 122.019531 191.332031 98.214844 226.414062 98.214844 C 242.003906 98.214844 251.75 100.558594 251.75 100.558594 L 251.75 138.019531 L 226.414062 138.019531 C 215.890625 138.019531 207.3125 146.605469 207.3125 157.140625 L 207.3125 189.53125 L 248.242188 189.53125 L 242.523438 234.148438 L 207.3125 234.148438 L 207.3125 336.652344 C 280.722656 326.894531 337.371094 263.9375 337.371094 187.839844 C 337.5 104.851562 270.328125 37.597656 187.566406 37.597656 Z M 187.566406 37.597656 " fill-opacity="1" fill-rule="nonzero"/></g></svg>