<svg xmlns="http://www.w3.org/2000/svg" xmlns:xlink="http://www.w3.org/1999/xlink" zoomAndPan="magnify" preserveAspectRatio="xMidYMid meet" version="1.0" viewBox="28.12 7.47 318.54 46.94"><defs><g/></defs><g fill="#dacad4" fill-opacity="1"><g transform="translate(27.843753, 24.290736)"><g><path d="M 3.78125 -15.753906 C 3.441406 -15.753906 0.273438 -15.753906 0.273438 -15.753906 C 0.273438 -15.753906 0.738281 -15.613281 0.738281 -14.304688 L 0.738281 -1.539062 C 0.738281 -0.230469 0.273438 -0.0117188 0.273438 -0.0117188 C 0.273438 -0.0117188 3.5625 -0.0117188 3.871094 -0.0117188 C 9.632812 -0.0117188 12.082031 -3.539062 12.082031 -7.871094 C 12.082031 -12.203125 9.882812 -15.753906 3.78125 -15.753906 Z M 3.453125 -0.496094 L 2.210938 -0.496094 C 2.132812 -0.714844 2.078125 -1.054688 2.078125 -1.539062 L 2.078125 -14.316406 C 2.078125 -14.800781 2.132812 -15.117188 2.210938 -15.339844 L 3.453125 -15.339844 C 9.214844 -15.339844 10.6875 -11.972656 10.6875 -7.90625 C 10.6875 -3.828125 9.148438 -0.496094 3.453125 -0.496094 Z M 3.453125 -0.496094 "/></g></g></g><g fill="#dacad4" fill-opacity="1"><g transform="translate(40.418863, 24.290736)"><g><path d="M 1.386719 -14.753906 C 0.78125 -14.753906 0.273438 -14.25 0.273438 -13.632812 C 0.273438 -13.027344 0.78125 -12.535156 1.386719 -12.535156 C 2 -12.535156 2.496094 -13.027344 2.496094 -13.632812 C 2.496094 -14.25 2 -14.753906 1.386719 -14.753906 Z M 0.386719 0 L 2.640625 0 C 2.640625 0 2.1875 -0.144531 2.1875 -1.453125 L 2.175781 -11.777344 L 0.386719 -11.082031 C 0.386719 -11.082031 0.847656 -10.863281 0.847656 -9.554688 L 0.847656 -1.460938 C 0.847656 -0.152344 0.386719 0 0.386719 0 Z M 0.386719 0 "/></g></g></g><g fill="#dacad4" fill-opacity="1"><g transform="translate(43.551649, 24.290736)"><g><path d="M 9.148438 -3.113281 C 9.148438 -2.222656 8.597656 -0.285156 5.542969 -0.285156 C 2.253906 -0.285156 1.394531 -2.574219 1.210938 -3.089844 L 0.273438 -1.957031 C 0.617188 -1.507812 1.683594 0 5.519531 0 C 9.367188 0 10.894531 -1.40625 10.894531 -3.34375 C 10.894531 -7.421875 2.277344 -5.53125 2.277344 -8.808594 C 2.277344 -10.542969 3.804688 -11.445312 5.320312 -11.445312 C 9.335938 -11.445312 9.390625 -8.972656 9.390625 -8.972656 L 9.820312 -10.773438 C 9.820312 -10.773438 8.257812 -11.753906 5.488281 -11.753906 C 1.066406 -11.753906 0.878906 -9.257812 0.878906 -8.796875 C 0.878906 -4.308594 9.148438 -6.378906 9.148438 -3.113281 Z M 9.148438 -3.113281 "/></g></g></g><g fill="#dacad4" fill-opacity="1"><g transform="translate(54.939595, 24.290736)"><g><path d="M 10.226562 -3.089844 C 9.179688 0.515625 1.660156 0.8125 1.660156 -5.925781 C 1.660156 -8.871094 3.574219 -11.257812 5.925781 -11.257812 C 7.554688 -11.257812 9.105469 -10.433594 9.6875 -8.457031 L 10.566406 -9.585938 C 9.851562 -10.828125 7.925781 -11.753906 5.925781 -11.753906 C 2.816406 -11.753906 0.273438 -9.113281 0.273438 -5.871094 C 0.273438 -2.175781 2.816406 0.0117188 5.925781 0.0117188 C 7.574219 0.0117188 9.554688 -0.703125 10.226562 -3.089844 Z M 10.226562 -3.089844 "/></g></g></g><g fill="#dacad4" fill-opacity="1"><g transform="translate(65.99778, 24.290736)"><g><path d="M 5.925781 -11.765625 C 2.804688 -11.765625 0.273438 -9.113281 0.273438 -5.871094 C 0.273438 -2.628906 2.804688 0.0117188 5.925781 0.0117188 C 9.050781 0.0117188 11.578125 -2.628906 11.578125 -5.871094 C 11.578125 -9.113281 9.050781 -11.765625 5.925781 -11.765625 Z M 5.925781 -0.496094 C 3.574219 -0.496094 1.660156 -2.980469 1.660156 -5.925781 C 1.660156 -8.871094 3.574219 -11.257812 5.925781 -11.257812 C 8.277344 -11.257812 10.191406 -8.871094 10.191406 -5.925781 C 10.191406 -2.980469 8.277344 -0.496094 5.925781 -0.496094 Z M 5.925781 -0.496094 "/></g></g></g><g fill="#dacad4" fill-opacity="1"><g transform="translate(78.067245, 24.290736)"><g><path d="M 5.34375 0 L 9.347656 -10.226562 C 9.863281 -11.535156 10.414062 -11.765625 10.414062 -11.765625 L 9.246094 -11.765625 C 9.246094 -11.765625 9.609375 -11.535156 9.105469 -10.226562 L 5.882812 -2.023438 L 2.671875 -10.226562 C 2.164062 -11.535156 2.527344 -11.765625 2.527344 -11.765625 L 0.273438 -11.765625 C 0.273438 -11.765625 0.824219 -11.535156 1.339844 -10.226562 Z M 5.34375 0 "/></g></g></g><g fill="#dacad4" fill-opacity="1"><g transform="translate(88.971541, 24.290736)"><g><path d="M 1.660156 -6.144531 L 1.660156 -6.289062 L 11.414062 -6.289062 C 11.414062 -10.246094 9.148438 -11.765625 6.035156 -11.765625 C 2.914062 -11.765625 0.273438 -9.335938 0.273438 -6.089844 C 0.273438 -2.847656 2.683594 0.0117188 6.453125 0.0117188 C 8.917969 0.0117188 10.875 -1.636719 11.0625 -3.386719 C 10.300781 0.175781 1.738281 0.921875 1.660156 -6.144531 Z M 6.035156 -11.257812 C 8.90625 -11.257812 10.160156 -9.257812 10.160156 -6.628906 L 1.671875 -6.628906 C 1.859375 -9.324219 3.804688 -11.257812 6.035156 -11.257812 Z M 6.035156 -11.257812 "/></g></g></g><g fill="#dacad4" fill-opacity="1"><g transform="translate(100.876119, 24.290736)"><g><path d="M 2.132812 -8.476562 C 2.769531 -11.621094 7.035156 -12.214844 7.90625 -9.082031 L 9.09375 -9.367188 C 8.246094 -12.675781 2.308594 -12.710938 2.132812 -8.476562 Z M 0.273438 0 L 2.527344 0 C 2.527344 0 2.078125 -0.144531 2.078125 -1.453125 L 2.066406 -11.777344 L 0.273438 -11.082031 C 0.273438 -11.082031 0.738281 -10.863281 0.738281 -9.554688 L 0.738281 -1.460938 C 0.738281 -0.152344 0.273438 0 0.273438 0 Z M 0.273438 0 "/></g></g></g><g fill="#dacad4" fill-opacity="1"><g transform="translate(110.461347, 24.290736)"><g/></g></g><g fill="#dacad4" fill-opacity="1"><g transform="translate(116.177304, 24.290736)"><g><path d="M 3.199219 -11.765625 L 3.199219 -14.855469 L 1.40625 -14.160156 C 1.40625 -14.160156 1.871094 -13.941406 1.871094 -12.632812 C 1.871094 -12.632812 1.871094 -12.359375 1.871094 -11.765625 L 0.273438 -11.765625 L 0.273438 -11.390625 L 1.871094 -11.390625 C 1.871094 -9.839844 1.871094 -6.761719 1.871094 -1.726562 C 1.871094 -0.230469 2.957031 0 3.308594 0 C 4.023438 0 4.628906 -0.472656 4.628906 -1.1875 C 4.441406 -0.714844 3.1875 -0.496094 3.210938 -1.714844 L 3.199219 -11.390625 L 5.125 -11.390625 L 5.125 -11.765625 Z M 3.199219 -11.765625 "/></g></g></g><g fill="#dacad4" fill-opacity="1"><g transform="translate(121.794327, 24.290736)"><g><path d="M 2.066406 -16.824219 L 0.273438 -16.128906 C 0.273438 -16.128906 0.738281 -15.910156 0.738281 -14.589844 L 0.738281 -1.460938 C 0.738281 -0.152344 0.273438 0 0.273438 0 C 1.460938 0 2.078125 -0.230469 2.078125 -1.296875 Z M 8.027344 0 L 10.28125 0 C 10.28125 0 9.820312 -0.144531 9.820312 -1.453125 L 9.820312 -8.707031 C 9.820312 -12.292969 2.871094 -13.390625 2.15625 -8.476562 C 3.242188 -12.3125 8.476562 -12.28125 8.476562 -8.457031 C 8.476562 -1.460938 8.476562 -1.460938 8.476562 -1.460938 C 8.476562 -0.152344 8.027344 0 8.027344 0 Z M 8.027344 0 "/></g></g></g><g fill="#dacad4" fill-opacity="1"><g transform="translate(132.566707, 24.290736)"><g><path d="M 1.660156 -6.144531 L 1.660156 -6.289062 L 11.414062 -6.289062 C 11.414062 -10.246094 9.148438 -11.765625 6.035156 -11.765625 C 2.914062 -11.765625 0.273438 -9.335938 0.273438 -6.089844 C 0.273438 -2.847656 2.683594 0.0117188 6.453125 0.0117188 C 8.917969 0.0117188 10.875 -1.636719 11.0625 -3.386719 C 10.300781 0.175781 1.738281 0.921875 1.660156 -6.144531 Z M 6.035156 -11.257812 C 8.90625 -11.257812 10.160156 -9.257812 10.160156 -6.628906 L 1.671875 -6.628906 C 1.859375 -9.324219 3.804688 -11.257812 6.035156 -11.257812 Z M 6.035156 -11.257812 "/></g></g></g><g fill="#dacad4" fill-opacity="1"><g transform="translate(144.471285, 24.290736)"><g/></g></g><g fill="#dacad4" fill-opacity="1"><g transform="translate(150.187243, 24.290736)"><g><path d="M 15.589844 -15.765625 L 13.976562 -15.765625 L 8.027344 -1.824219 L 2.066406 -15.765625 L 0.273438 -15.765625 C 0.273438 -15.765625 0.921875 -15.457031 0.921875 -14.304688 L 0.921875 -1.539062 C 0.921875 -0.230469 0.472656 -0.0117188 0.472656 -0.0117188 L 1.636719 -0.0117188 C 1.636719 -0.0117188 1.175781 -0.230469 1.175781 -1.539062 C 1.175781 -1.539062 1.1875 -14.558594 1.1875 -14.667969 C 1.242188 -14.558594 7.585938 -0.0117188 7.585938 -0.0117188 C 7.585938 -0.0117188 13.734375 -14.570312 13.789062 -14.6875 L 13.789062 -1.539062 C 13.789062 -0.230469 13.335938 -0.0117188 13.335938 -0.0117188 L 15.589844 -0.0117188 C 15.589844 -0.0117188 15.128906 -0.230469 15.128906 -1.539062 L 15.128906 -14.316406 C 15.128906 -15.625 15.589844 -15.765625 15.589844 -15.765625 Z M 15.589844 -15.765625 "/></g></g></g><g fill="#dacad4" fill-opacity="1"><g transform="translate(166.268868, 24.290736)"><g><path d="M 9.269531 -4.894531 C 9.269531 -2.683594 7.796875 -0.625 5.144531 -0.625 C 3.023438 -0.625 1.671875 -1.691406 1.671875 -3.816406 C 1.671875 -8.039062 8.742188 -7.210938 9.203125 -8.476562 C 8.269531 -7.191406 0.273438 -8.695312 0.273438 -3.398438 C 0.273438 -2.199219 1.253906 0 4.859375 0 C 7.332031 0 8.621094 -1.460938 9.269531 -2.9375 L 9.269531 -1.460938 C 9.269531 -0.132812 10.117188 0 11.0625 0 C 11.0625 0 10.609375 -0.144531 10.609375 -1.453125 L 10.609375 -7.882812 C 10.621094 -9.894531 10.050781 -11.777344 6.355469 -11.777344 C 4.34375 -11.777344 2.320312 -11.070312 1.320312 -8.972656 L 2.496094 -8.191406 C 2.945312 -10.125 4.429688 -11.414062 6.34375 -11.414062 C 8.960938 -11.414062 9.269531 -9.652344 9.269531 -7.871094 Z M 9.269531 -4.894531 "/></g></g></g><g fill="#dacad4" fill-opacity="1"><g transform="translate(177.821701, 24.290736)"><g><path d="M 6.519531 -1.121094 C 4.550781 -1.121094 3.320312 -0.386719 1.871094 -0.386719 C 1.242188 -0.386719 1.023438 -0.792969 1.023438 -1.164062 C 1.023438 -1.878906 1.871094 -2.1875 2.574219 -2.253906 C 3.375 -1.703125 4.34375 -1.375 5.375 -1.375 C 8.125 -1.375 10.355469 -3.695312 10.355469 -6.5625 C 10.355469 -8.34375 9.488281 -9.929688 8.167969 -10.851562 C 8.632812 -11.578125 9.378906 -11.402344 9.894531 -11.117188 C 10.632812 -10.710938 11.304688 -11.972656 10.324219 -12.269531 C 9.070312 -12.644531 8.410156 -11.742188 8.046875 -10.949219 C 7.269531 -11.457031 6.355469 -11.765625 5.375 -11.765625 C 2.628906 -11.765625 0.351562 -9.433594 0.351562 -6.5625 C 0.351562 -4.835938 1.175781 -3.308594 2.441406 -2.363281 C 1.394531 -2.351562 0.109375 -1.890625 0.109375 -0.8125 C 0.109375 -0.164062 0.648438 0.363281 1.496094 0.363281 C 2.925781 0.363281 4.113281 -0.636719 6.003906 -0.691406 C 8.015625 -0.746094 9.632812 0.339844 9.632812 2.351562 C 9.632812 4.363281 8.015625 5.683594 5.585938 5.683594 C 0.429688 5.683594 1.097656 1.066406 2.332031 0.757812 C -0.550781 -0.242188 -1.441406 6.113281 5.519531 6.113281 C 8.984375 6.113281 11.105469 4.597656 11.105469 2.265625 C 11.105469 -0.714844 7.675781 -1.121094 6.519531 -1.121094 Z M 1.691406 -6.617188 C 1.691406 -9.214844 3.296875 -11.324219 5.375 -11.324219 C 7.445312 -11.324219 9.015625 -9.136719 9.015625 -6.53125 C 9.015625 -3.9375 7.445312 -1.824219 5.375 -1.824219 C 3.296875 -1.824219 1.691406 -4.011719 1.691406 -6.617188 Z M 1.691406 -6.617188 "/></g></g></g><g fill="#dacad4" fill-opacity="1"><g transform="translate(188.780952, 24.290736)"><g><path d="M 1.386719 -14.753906 C 0.78125 -14.753906 0.273438 -14.25 0.273438 -13.632812 C 0.273438 -13.027344 0.78125 -12.535156 1.386719 -12.535156 C 2 -12.535156 2.496094 -13.027344 2.496094 -13.632812 C 2.496094 -14.25 2 -14.753906 1.386719 -14.753906 Z M 0.386719 0 L 2.640625 0 C 2.640625 0 2.1875 -0.144531 2.1875 -1.453125 L 2.175781 -11.777344 L 0.386719 -11.082031 C 0.386719 -11.082031 0.847656 -10.863281 0.847656 -9.554688 L 0.847656 -1.460938 C 0.847656 -0.152344 0.386719 0 0.386719 0 Z M 0.386719 0 "/></g></g></g><g fill="#dacad4" fill-opacity="1"><g transform="translate(191.913738, 24.290736)"><g><path d="M 10.226562 -3.089844 C 9.179688 0.515625 1.660156 0.8125 1.660156 -5.925781 C 1.660156 -8.871094 3.574219 -11.257812 5.925781 -11.257812 C 7.554688 -11.257812 9.105469 -10.433594 9.6875 -8.457031 L 10.566406 -9.585938 C 9.851562 -10.828125 7.925781 -11.753906 5.925781 -11.753906 C 2.816406 -11.753906 0.273438 -9.113281 0.273438 -5.871094 C 0.273438 -2.175781 2.816406 0.0117188 5.925781 0.0117188 C 7.574219 0.0117188 9.554688 -0.703125 10.226562 -3.089844 Z M 10.226562 -3.089844 "/></g></g></g><g fill="#dacad4" fill-opacity="1"><g transform="translate(202.971922, 24.290736)"><g/></g></g><g fill="#dacad4" fill-opacity="1"><g transform="translate(208.68788, 24.290736)"><g><path d="M 5.925781 -11.765625 C 2.804688 -11.765625 0.273438 -9.113281 0.273438 -5.871094 C 0.273438 -2.628906 2.804688 0.0117188 5.925781 0.0117188 C 9.050781 0.0117188 11.578125 -2.628906 11.578125 -5.871094 C 11.578125 -9.113281 9.050781 -11.765625 5.925781 -11.765625 Z M 5.925781 -0.496094 C 3.574219 -0.496094 1.660156 -2.980469 1.660156 -5.925781 C 1.660156 -8.871094 3.574219 -11.257812 5.925781 -11.257812 C 8.277344 -11.257812 10.191406 -8.871094 10.191406 -5.925781 C 10.191406 -2.980469 8.277344 -0.496094 5.925781 -0.496094 Z M 5.925781 -0.496094 "/></g></g></g><g fill="#dacad4" fill-opacity="1"><g transform="translate(220.757344, 24.290736)"><g><path d="M 1.847656 -11.765625 L 0.273438 -11.765625 L 0.273438 -11.335938 L 1.847656 -11.335938 L 1.847656 -1.460938 C 1.847656 -0.152344 1.386719 0 1.386719 0 L 3.640625 0 C 3.640625 0 3.175781 -0.144531 3.175781 -1.453125 L 3.175781 -11.335938 L 5.859375 -11.335938 L 5.859375 -11.765625 L 3.175781 -11.765625 C 3.175781 -14.929688 4.671875 -15.371094 5.355469 -15.339844 C 6.246094 -15.28125 6.574219 -14.65625 6.75 -14.226562 C 7.003906 -13.601562 8.378906 -13.875 8.058594 -14.589844 C 7.730469 -15.339844 6.785156 -15.777344 5.53125 -15.777344 C 3.1875 -15.777344 1.847656 -14.105469 1.847656 -11.765625 Z M 1.847656 -11.765625 "/></g></g></g><g fill="#dacad4" fill-opacity="1"><g transform="translate(227.121861, 24.290736)"><g/></g></g><g fill="#dacad4" fill-opacity="1"><g transform="translate(232.837819, 24.290736)"><g><path d="M 5.90625 -7.277344 L 5.90625 -1.460938 C 5.90625 -0.152344 5.441406 -0.0117188 5.441406 -0.0117188 L 7.695312 -0.0117188 C 7.695312 -0.0117188 7.234375 -0.144531 7.234375 -1.453125 L 7.234375 -7.324219 L 11.488281 -14.316406 C 12.292969 -15.625 12.832031 -15.765625 12.832031 -15.765625 L 11.664062 -15.765625 C 11.664062 -15.765625 12.027344 -15.613281 11.238281 -14.304688 L 7.101562 -7.507812 L 3.011719 -14.226562 C 2.210938 -15.535156 2.527344 -15.765625 2.527344 -15.765625 L 0.273438 -15.765625 C 0.273438 -15.765625 0.867188 -15.535156 1.671875 -14.226562 Z M 5.90625 -7.277344 "/></g></g></g><g fill="#dacad4" fill-opacity="1"><g transform="translate(246.160389, 24.290736)"><g><path d="M 5.925781 -11.765625 C 2.804688 -11.765625 0.273438 -9.113281 0.273438 -5.871094 C 0.273438 -2.628906 2.804688 0.0117188 5.925781 0.0117188 C 9.050781 0.0117188 11.578125 -2.628906 11.578125 -5.871094 C 11.578125 -9.113281 9.050781 -11.765625 5.925781 -11.765625 Z M 5.925781 -0.496094 C 3.574219 -0.496094 1.660156 -2.980469 1.660156 -5.925781 C 1.660156 -8.871094 3.574219 -11.257812 5.925781 -11.257812 C 8.277344 -11.257812 10.191406 -8.871094 10.191406 -5.925781 C 10.191406 -2.980469 8.277344 -0.496094 5.925781 -0.496094 Z M 5.925781 -0.496094 "/></g></g></g><g fill="#dacad4" fill-opacity="1"><g transform="translate(258.229853, 24.290736)"><g><path d="M 2.078125 -3.332031 C 2.078125 -10.324219 2.078125 -10.324219 2.078125 -10.324219 C 2.078125 -11.644531 2.078125 -11.785156 2.078125 -11.785156 L 0.273438 -11.082031 C 0.273438 -11.082031 0.738281 -10.941406 0.738281 -9.632812 L 0.738281 -3.078125 C 0.738281 0.503906 7.683594 1.605469 8.410156 -3.308594 C 7.3125 0.527344 2.078125 0.496094 2.078125 -3.332031 Z M 8.027344 0 L 10.28125 0 C 10.28125 0 9.828125 -0.144531 9.828125 -1.453125 L 9.820312 -11.777344 L 8.027344 -11.082031 C 8.027344 -11.082031 8.488281 -10.863281 8.488281 -9.554688 L 8.488281 -1.460938 C 8.488281 -0.152344 8.027344 0 8.027344 0 Z M 8.027344 0 "/></g></g></g><g fill="#dacad4" fill-opacity="1"><g transform="translate(269.002245, 24.290736)"><g><path d="M 2.132812 -8.476562 C 2.769531 -11.621094 7.035156 -12.214844 7.90625 -9.082031 L 9.09375 -9.367188 C 8.246094 -12.675781 2.308594 -12.710938 2.132812 -8.476562 Z M 0.273438 0 L 2.527344 0 C 2.527344 0 2.078125 -0.144531 2.078125 -1.453125 L 2.066406 -11.777344 L 0.273438 -11.082031 C 0.273438 -11.082031 0.738281 -10.863281 0.738281 -9.554688 L 0.738281 -1.460938 C 0.738281 -0.152344 0.273438 0 0.273438 0 Z M 0.273438 0 "/></g></g></g><g fill="#dacad4" fill-opacity="1"><g transform="translate(278.587472, 24.290736)"><g/></g></g><g fill="#dacad4" fill-opacity="1"><g transform="translate(284.30343, 24.290736)"><g><path d="M 10.808594 -9.984375 L 14.710938 -0.0117188 L 20.285156 -14.226562 C 20.792969 -15.535156 21.339844 -15.765625 21.339844 -15.765625 L 20.175781 -15.765625 C 20.175781 -15.765625 20.539062 -15.535156 20.03125 -14.226562 L 15.261719 -2.035156 L 10.488281 -14.226562 C 9.972656 -15.535156 10.347656 -15.765625 10.347656 -15.765625 L 8.09375 -15.765625 C 8.09375 -15.765625 8.632812 -15.535156 9.148438 -14.226562 L 10.6875 -10.300781 L 7.445312 -2.035156 L 2.671875 -14.226562 C 2.164062 -15.535156 2.527344 -15.765625 2.527344 -15.765625 L 0.273438 -15.765625 C 0.273438 -15.765625 0.824219 -15.535156 1.339844 -14.226562 L 6.90625 -0.0117188 Z M 10.808594 -9.984375 "/></g></g></g><g fill="#dacad4" fill-opacity="1"><g transform="translate(306.133995, 24.290736)"><g><path d="M 1.386719 -14.753906 C 0.78125 -14.753906 0.273438 -14.25 0.273438 -13.632812 C 0.273438 -13.027344 0.78125 -12.535156 1.386719 -12.535156 C 2 -12.535156 2.496094 -13.027344 2.496094 -13.632812 C 2.496094 -14.25 2 -14.753906 1.386719 -14.753906 Z M 0.386719 0 L 2.640625 0 C 2.640625 0 2.1875 -0.144531 2.1875 -1.453125 L 2.175781 -11.777344 L 0.386719 -11.082031 C 0.386719 -11.082031 0.847656 -10.863281 0.847656 -9.554688 L 0.847656 -1.460938 C 0.847656 -0.152344 0.386719 0 0.386719 0 Z M 0.386719 0 "/></g></g></g><g fill="#dacad4" fill-opacity="1"><g transform="translate(309.266769, 24.290736)"><g><path d="M 0.273438 -11.070312 C 0.273438 -11.070312 0.738281 -10.851562 0.738281 -9.53125 L 0.738281 -1.460938 C 0.738281 -0.152344 0.273438 0 0.273438 0 C 1.460938 0 2.078125 -0.230469 2.078125 -1.296875 L 2.078125 -11.765625 Z M 8.027344 0 L 10.28125 0 C 10.28125 0 9.820312 -0.144531 9.820312 -1.453125 L 9.820312 -8.707031 C 9.820312 -12.292969 2.871094 -13.390625 2.15625 -8.476562 C 3.242188 -12.3125 8.476562 -12.28125 8.476562 -8.457031 C 8.476562 -1.460938 8.476562 -1.460938 8.476562 -1.460938 C 8.476562 -0.152344 8.027344 0 8.027344 0 Z M 8.027344 0 "/></g></g></g><g fill="#dacad4" fill-opacity="1"><g transform="translate(320.039138, 24.290736)"><g><path d="M 3.199219 -11.765625 L 3.199219 -14.855469 L 1.40625 -14.160156 C 1.40625 -14.160156 1.871094 -13.941406 1.871094 -12.632812 C 1.871094 -12.632812 1.871094 -12.359375 1.871094 -11.765625 L 0.273438 -11.765625 L 0.273438 -11.390625 L 1.871094 -11.390625 C 1.871094 -9.839844 1.871094 -6.761719 1.871094 -1.726562 C 1.871094 -0.230469 2.957031 0 3.308594 0 C 4.023438 0 4.628906 -0.472656 4.628906 -1.1875 C 4.441406 -0.714844 3.1875 -0.496094 3.210938 -1.714844 L 3.199219 -11.390625 L 5.125 -11.390625 L 5.125 -11.765625 Z M 3.199219 -11.765625 "/></g></g></g><g fill="#dacad4" fill-opacity="1"><g transform="translate(325.656172, 24.290736)"><g><path d="M 1.660156 -6.144531 L 1.660156 -6.289062 L 11.414062 -6.289062 C 11.414062 -10.246094 9.148438 -11.765625 6.035156 -11.765625 C 2.914062 -11.765625 0.273438 -9.335938 0.273438 -6.089844 C 0.273438 -2.847656 2.683594 0.0117188 6.453125 0.0117188 C 8.917969 0.0117188 10.875 -1.636719 11.0625 -3.386719 C 10.300781 0.175781 1.738281 0.921875 1.660156 -6.144531 Z M 6.035156 -11.257812 C 8.90625 -11.257812 10.160156 -9.257812 10.160156 -6.628906 L 1.671875 -6.628906 C 1.859375 -9.324219 3.804688 -11.257812 6.035156 -11.257812 Z M 6.035156 -11.257812 "/></g></g></g><g fill="#dacad4" fill-opacity="1"><g transform="translate(337.560751, 24.290736)"><g><path d="M 2.132812 -8.476562 C 2.769531 -11.621094 7.035156 -12.214844 7.90625 -9.082031 L 9.09375 -9.367188 C 8.246094 -12.675781 2.308594 -12.710938 2.132812 -8.476562 Z M 0.273438 0 L 2.527344 0 C 2.527344 0 2.078125 -0.144531 2.078125 -1.453125 L 2.066406 -11.777344 L 0.273438 -11.082031 C 0.273438 -11.082031 0.738281 -10.863281 0.738281 -9.554688 L 0.738281 -1.460938 C 0.738281 -0.152344 0.273438 0 0.273438 0 Z M 0.273438 0 "/></g></g></g><g fill="#dacad4" fill-opacity="1"><g transform="translate(85.687499, 48.290734)"><g><path d="M 10.808594 -9.984375 L 14.710938 -0.0117188 L 20.285156 -14.226562 C 20.792969 -15.535156 21.339844 -15.765625 21.339844 -15.765625 L 20.175781 -15.765625 C 20.175781 -15.765625 20.539062 -15.535156 20.03125 -14.226562 L 15.261719 -2.035156 L 10.488281 -14.226562 C 9.972656 -15.535156 10.347656 -15.765625 10.347656 -15.765625 L 8.09375 -15.765625 C 8.09375 -15.765625 8.632812 -15.535156 9.148438 -14.226562 L 10.6875 -10.300781 L 7.445312 -2.035156 L 2.671875 -14.226562 C 2.164062 -15.535156 2.527344 -15.765625 2.527344 -15.765625 L 0.273438 -15.765625 C 0.273438 -15.765625 0.824219 -15.535156 1.339844 -14.226562 L 6.90625 -0.0117188 Z M 10.808594 -9.984375 "/></g></g></g><g fill="#dacad4" fill-opacity="1"><g transform="translate(107.518064, 48.290734)"><g><path d="M 5.925781 -11.765625 C 2.804688 -11.765625 0.273438 -9.113281 0.273438 -5.871094 C 0.273438 -2.628906 2.804688 0.0117188 5.925781 0.0117188 C 9.050781 0.0117188 11.578125 -2.628906 11.578125 -5.871094 C 11.578125 -9.113281 9.050781 -11.765625 5.925781 -11.765625 Z M 5.925781 -0.496094 C 3.574219 -0.496094 1.660156 -2.980469 1.660156 -5.925781 C 1.660156 -8.871094 3.574219 -11.257812 5.925781 -11.257812 C 8.277344 -11.257812 10.191406 -8.871094 10.191406 -5.925781 C 10.191406 -2.980469 8.277344 -0.496094 5.925781 -0.496094 Z M 5.925781 -0.496094 "/></g></g></g><g fill="#dacad4" fill-opacity="1"><g transform="translate(119.587529, 48.290734)"><g><path d="M 0.273438 -11.070312 C 0.273438 -11.070312 0.738281 -10.851562 0.738281 -9.53125 L 0.738281 -1.460938 C 0.738281 -0.152344 0.273438 0 0.273438 0 C 1.460938 0 2.078125 -0.230469 2.078125 -1.296875 L 2.078125 -11.765625 Z M 8.027344 0 L 10.28125 0 C 10.28125 0 9.820312 -0.144531 9.820312 -1.453125 L 9.820312 -8.707031 C 9.820312 -12.292969 2.871094 -13.390625 2.15625 -8.476562 C 3.242188 -12.3125 8.476562 -12.28125 8.476562 -8.457031 C 8.476562 -1.460938 8.476562 -1.460938 8.476562 -1.460938 C 8.476562 -0.152344 8.027344 0 8.027344 0 Z M 8.027344 0 "/></g></g></g><g fill="#dacad4" fill-opacity="1"><g transform="translate(130.359909, 48.290734)"><g><path d="M 9.664062 -4.671875 C 9.664062 -2.5625 8.445312 -0.460938 5.726562 -0.460938 C 3.859375 -0.460938 1.671875 -1.925781 1.671875 -5.882812 C 1.671875 -13.425781 8.753906 -12.402344 9.578125 -8.476562 C 9.355469 -13.699219 0.273438 -13.535156 0.273438 -5.914062 C 0.273438 -2.320312 2.539062 0 5.839844 0 C 7.542969 0 8.917969 -0.726562 9.652344 -1.847656 L 9.652344 -1.296875 C 9.652344 -0.230469 10.269531 0 11.457031 0 C 11.457031 0 10.996094 -0.152344 10.996094 -1.460938 L 10.996094 -14.589844 C 10.996094 -15.898438 11.457031 -16.128906 11.457031 -16.128906 L 9.664062 -16.824219 Z M 9.664062 -4.671875 "/></g></g></g><g fill="#dacad4" fill-opacity="1"><g transform="translate(142.308455, 48.290734)"><g><path d="M 1.660156 -6.144531 L 1.660156 -6.289062 L 11.414062 -6.289062 C 11.414062 -10.246094 9.148438 -11.765625 6.035156 -11.765625 C 2.914062 -11.765625 0.273438 -9.335938 0.273438 -6.089844 C 0.273438 -2.847656 2.683594 0.0117188 6.453125 0.0117188 C 8.917969 0.0117188 10.875 -1.636719 11.0625 -3.386719 C 10.300781 0.175781 1.738281 0.921875 1.660156 -6.144531 Z M 6.035156 -11.257812 C 8.90625 -11.257812 10.160156 -9.257812 10.160156 -6.628906 L 1.671875 -6.628906 C 1.859375 -9.324219 3.804688 -11.257812 6.035156 -11.257812 Z M 6.035156 -11.257812 "/></g></g></g><g fill="#dacad4" fill-opacity="1"><g transform="translate(154.213034, 48.290734)"><g><path d="M 2.132812 -8.476562 C 2.769531 -11.621094 7.035156 -12.214844 7.90625 -9.082031 L 9.09375 -9.367188 C 8.246094 -12.675781 2.308594 -12.710938 2.132812 -8.476562 Z M 0.273438 0 L 2.527344 0 C 2.527344 0 2.078125 -0.144531 2.078125 -1.453125 L 2.066406 -11.777344 L 0.273438 -11.082031 C 0.273438 -11.082031 0.738281 -10.863281 0.738281 -9.554688 L 0.738281 -1.460938 C 0.738281 -0.152344 0.273438 0 0.273438 0 Z M 0.273438 0 "/></g></g></g><g fill="#dacad4" fill-opacity="1"><g transform="translate(163.798261, 48.290734)"><g><path d="M 0.738281 -14.589844 L 0.738281 -1.460938 C 0.738281 -0.152344 0.273438 0 0.273438 0 L 2.527344 0 C 2.527344 0 2.078125 -0.144531 2.078125 -1.453125 L 2.066406 -16.824219 L 0.273438 -16.128906 C 0.273438 -16.128906 0.738281 -15.898438 0.738281 -14.589844 Z M 0.738281 -14.589844 "/></g></g></g><g fill="#dacad4" fill-opacity="1"><g transform="translate(166.821126, 48.290734)"><g><path d="M 9.269531 -4.894531 C 9.269531 -2.683594 7.796875 -0.625 5.144531 -0.625 C 3.023438 -0.625 1.671875 -1.691406 1.671875 -3.816406 C 1.671875 -8.039062 8.742188 -7.210938 9.203125 -8.476562 C 8.269531 -7.191406 0.273438 -8.695312 0.273438 -3.398438 C 0.273438 -2.199219 1.253906 0 4.859375 0 C 7.332031 0 8.621094 -1.460938 9.269531 -2.9375 L 9.269531 -1.460938 C 9.269531 -0.132812 10.117188 0 11.0625 0 C 11.0625 0 10.609375 -0.144531 10.609375 -1.453125 L 10.609375 -7.882812 C 10.621094 -9.894531 10.050781 -11.777344 6.355469 -11.777344 C 4.34375 -11.777344 2.320312 -11.070312 1.320312 -8.972656 L 2.496094 -8.191406 C 2.945312 -10.125 4.429688 -11.414062 6.34375 -11.414062 C 8.960938 -11.414062 9.269531 -9.652344 9.269531 -7.871094 Z M 9.269531 -4.894531 "/></g></g></g><g fill="#dacad4" fill-opacity="1"><g transform="translate(178.373959, 48.290734)"><g><path d="M 0.273438 -11.070312 C 0.273438 -11.070312 0.738281 -10.851562 0.738281 -9.53125 L 0.738281 -1.460938 C 0.738281 -0.152344 0.273438 0 0.273438 0 C 1.460938 0 2.078125 -0.230469 2.078125 -1.296875 L 2.078125 -11.765625 Z M 8.027344 0 L 10.28125 0 C 10.28125 0 9.820312 -0.144531 9.820312 -1.453125 L 9.820312 -8.707031 C 9.820312 -12.292969 2.871094 -13.390625 2.15625 -8.476562 C 3.242188 -12.3125 8.476562 -12.28125 8.476562 -8.457031 C 8.476562 -1.460938 8.476562 -1.460938 8.476562 -1.460938 C 8.476562 -0.152344 8.027344 0 8.027344 0 Z M 8.027344 0 "/></g></g></g><g fill="#dacad4" fill-opacity="1"><g transform="translate(189.146339, 48.290734)"><g><path d="M 9.664062 -4.671875 C 9.664062 -2.5625 8.445312 -0.460938 5.726562 -0.460938 C 3.859375 -0.460938 1.671875 -1.925781 1.671875 -5.882812 C 1.671875 -13.425781 8.753906 -12.402344 9.578125 -8.476562 C 9.355469 -13.699219 0.273438 -13.535156 0.273438 -5.914062 C 0.273438 -2.320312 2.539062 0 5.839844 0 C 7.542969 0 8.917969 -0.726562 9.652344 -1.847656 L 9.652344 -1.296875 C 9.652344 -0.230469 10.269531 0 11.457031 0 C 11.457031 0 10.996094 -0.152344 10.996094 -1.460938 L 10.996094 -14.589844 C 10.996094 -15.898438 11.457031 -16.128906 11.457031 -16.128906 L 9.664062 -16.824219 Z M 9.664062 -4.671875 "/></g></g></g><g fill="#dacad4" fill-opacity="1"><g transform="translate(201.094886, 48.290734)"><g/></g></g><g fill="#dacad4" fill-opacity="1"><g transform="translate(206.810843, 48.290734)"><g><path d="M 10.808594 -9.984375 L 14.710938 -0.0117188 L 20.285156 -14.226562 C 20.792969 -15.535156 21.339844 -15.765625 21.339844 -15.765625 L 20.175781 -15.765625 C 20.175781 -15.765625 20.539062 -15.535156 20.03125 -14.226562 L 15.261719 -2.035156 L 10.488281 -14.226562 C 9.972656 -15.535156 10.347656 -15.765625 10.347656 -15.765625 L 8.09375 -15.765625 C 8.09375 -15.765625 8.632812 -15.535156 9.148438 -14.226562 L 10.6875 -10.300781 L 7.445312 -2.035156 L 2.671875 -14.226562 C 2.164062 -15.535156 2.527344 -15.765625 2.527344 -15.765625 L 0.273438 -15.765625 C 0.273438 -15.765625 0.824219 -15.535156 1.339844 -14.226562 L 6.90625 -0.0117188 Z M 10.808594 -9.984375 "/></g></g></g><g fill="#dacad4" fill-opacity="1"><g transform="translate(228.641408, 48.290734)"><g><path d="M 1.660156 -6.144531 L 1.660156 -6.289062 L 11.414062 -6.289062 C 11.414062 -10.246094 9.148438 -11.765625 6.035156 -11.765625 C 2.914062 -11.765625 0.273438 -9.335938 0.273438 -6.089844 C 0.273438 -2.847656 2.683594 0.0117188 6.453125 0.0117188 C 8.917969 0.0117188 10.875 -1.636719 11.0625 -3.386719 C 10.300781 0.175781 1.738281 0.921875 1.660156 -6.144531 Z M 6.035156 -11.257812 C 8.90625 -11.257812 10.160156 -9.257812 10.160156 -6.628906 L 1.671875 -6.628906 C 1.859375 -9.324219 3.804688 -11.257812 6.035156 -11.257812 Z M 6.035156 -11.257812 "/></g></g></g><g fill="#dacad4" fill-opacity="1"><g transform="translate(240.545987, 48.290734)"><g><path d="M 9.664062 -4.671875 C 9.664062 -2.5625 8.445312 -0.460938 5.726562 -0.460938 C 3.859375 -0.460938 1.671875 -1.925781 1.671875 -5.882812 C 1.671875 -13.425781 8.753906 -12.402344 9.578125 -8.476562 C 9.355469 -13.699219 0.273438 -13.535156 0.273438 -5.914062 C 0.273438 -2.320312 2.539062 0 5.839844 0 C 7.542969 0 8.917969 -0.726562 9.652344 -1.847656 L 9.652344 -1.296875 C 9.652344 -0.230469 10.269531 0 11.457031 0 C 11.457031 0 10.996094 -0.152344 10.996094 -1.460938 L 10.996094 -14.589844 C 10.996094 -15.898438 11.457031 -16.128906 11.457031 -16.128906 L 9.664062 -16.824219 Z M 9.664062 -4.671875 "/></g></g></g><g fill="#dacad4" fill-opacity="1"><g transform="translate(252.494533, 48.290734)"><g><path d="M 9.664062 -4.671875 C 9.664062 -2.5625 8.445312 -0.460938 5.726562 -0.460938 C 3.859375 -0.460938 1.671875 -1.925781 1.671875 -5.882812 C 1.671875 -13.425781 8.753906 -12.402344 9.578125 -8.476562 C 9.355469 -13.699219 0.273438 -13.535156 0.273438 -5.914062 C 0.273438 -2.320312 2.539062 0 5.839844 0 C 7.542969 0 8.917969 -0.726562 9.652344 -1.847656 L 9.652344 -1.296875 C 9.652344 -0.230469 10.269531 0 11.457031 0 C 11.457031 0 10.996094 -0.152344 10.996094 -1.460938 L 10.996094 -14.589844 C 10.996094 -15.898438 11.457031 -16.128906 11.457031 -16.128906 L 9.664062 -16.824219 Z M 9.664062 -4.671875 "/></g></g></g><g fill="#dacad4" fill-opacity="1"><g transform="translate(264.44308, 48.290734)"><g><path d="M 1.386719 -14.753906 C 0.78125 -14.753906 0.273438 -14.25 0.273438 -13.632812 C 0.273438 -13.027344 0.78125 -12.535156 1.386719 -12.535156 C 2 -12.535156 2.496094 -13.027344 2.496094 -13.632812 C 2.496094 -14.25 2 -14.753906 1.386719 -14.753906 Z M 0.386719 0 L 2.640625 0 C 2.640625 0 2.1875 -0.144531 2.1875 -1.453125 L 2.175781 -11.777344 L 0.386719 -11.082031 C 0.386719 -11.082031 0.847656 -10.863281 0.847656 -9.554688 L 0.847656 -1.460938 C 0.847656 -0.152344 0.386719 0 0.386719 0 Z M 0.386719 0 "/></g></g></g><g fill="#dacad4" fill-opacity="1"><g transform="translate(267.575865, 48.290734)"><g><path d="M 0.273438 -11.070312 C 0.273438 -11.070312 0.738281 -10.851562 0.738281 -9.53125 L 0.738281 -1.460938 C 0.738281 -0.152344 0.273438 0 0.273438 0 C 1.460938 0 2.078125 -0.230469 2.078125 -1.296875 L 2.078125 -11.765625 Z M 8.027344 0 L 10.28125 0 C 10.28125 0 9.820312 -0.144531 9.820312 -1.453125 L 9.820312 -8.707031 C 9.820312 -12.292969 2.871094 -13.390625 2.15625 -8.476562 C 3.242188 -12.3125 8.476562 -12.28125 8.476562 -8.457031 C 8.476562 -1.460938 8.476562 -1.460938 8.476562 -1.460938 C 8.476562 -0.152344 8.027344 0 8.027344 0 Z M 8.027344 0 "/></g></g></g><g fill="#dacad4" fill-opacity="1"><g transform="translate(278.348245, 48.290734)"><g><path d="M 6.519531 -1.121094 C 4.550781 -1.121094 3.320312 -0.386719 1.871094 -0.386719 C 1.242188 -0.386719 1.023438 -0.792969 1.023438 -1.164062 C 1.023438 -1.878906 1.871094 -2.1875 2.574219 -2.253906 C 3.375 -1.703125 4.34375 -1.375 5.375 -1.375 C 8.125 -1.375 10.355469 -3.695312 10.355469 -6.5625 C 10.355469 -8.34375 9.488281 -9.929688 8.167969 -10.851562 C 8.632812 -11.578125 9.378906 -11.402344 9.894531 -11.117188 C 10.632812 -10.710938 11.304688 -11.972656 10.324219 -12.269531 C 9.070312 -12.644531 8.410156 -11.742188 8.046875 -10.949219 C 7.269531 -11.457031 6.355469 -11.765625 5.375 -11.765625 C 2.628906 -11.765625 0.351562 -9.433594 0.351562 -6.5625 C 0.351562 -4.835938 1.175781 -3.308594 2.441406 -2.363281 C 1.394531 -2.351562 0.109375 -1.890625 0.109375 -0.8125 C 0.109375 -0.164062 0.648438 0.363281 1.496094 0.363281 C 2.925781 0.363281 4.113281 -0.636719 6.003906 -0.691406 C 8.015625 -0.746094 9.632812 0.339844 9.632812 2.351562 C 9.632812 4.363281 8.015625 5.683594 5.585938 5.683594 C 0.429688 5.683594 1.097656 1.066406 2.332031 0.757812 C -0.550781 -0.242188 -1.441406 6.113281 5.519531 6.113281 C 8.984375 6.113281 11.105469 4.597656 11.105469 2.265625 C 11.105469 -0.714844 7.675781 -1.121094 6.519531 -1.121094 Z M 1.691406 -6.617188 C 1.691406 -9.214844 3.296875 -11.324219 5.375 -11.324219 C 7.445312 -11.324219 9.015625 -9.136719 9.015625 -6.53125 C 9.015625 -3.9375 7.445312 -1.824219 5.375 -1.824219 C 3.296875 -1.824219 1.691406 -4.011719 1.691406 -6.617188 Z M 1.691406 -6.617188 "/></g></g></g></svg>