<svg xmlns="http://www.w3.org/2000/svg" xmlns:xlink="http://www.w3.org/1999/xlink" width="500" zoomAndPan="magnify" viewBox="0 0 375 374.999991" height="500" preserveAspectRatio="xMidYMid meet" version="1.0"><defs><clipPath id="e98f158a32"><path d="M 37.5 37.5 L 337.5 37.5 L 337.5 337.5 L 37.5 337.5 Z M 37.5 37.5 " clip-rule="nonzero"/></clipPath></defs><path fill="#b7aebd" d="M 187.5 154.253906 C 169.1875 154.253906 154.253906 169.1875 154.253906 187.5 C 154.253906 205.8125 169.1875 220.746094 187.5 220.746094 C 205.8125 220.746094 220.746094 205.8125 220.746094 187.5 C 220.746094 169.1875 205.8125 154.253906 187.5 154.253906 Z M 187.5 154.253906 " fill-opacity="1" fill-rule="nonzero"/><path fill="#b7aebd" d="M 232.175781 105.941406 L 142.824219 105.941406 C 122.566406 105.941406 105.941406 122.433594 105.941406 142.824219 L 105.941406 232.175781 C 105.941406 252.433594 122.433594 269.058594 142.824219 269.058594 L 232.175781 269.058594 C 252.433594 269.058594 269.058594 252.566406 269.058594 232.175781 L 269.058594 142.824219 C 268.929688 122.433594 252.433594 105.941406 232.175781 105.941406 Z M 187.5 237.5 C 159.835938 237.5 137.371094 215.03125 137.371094 187.371094 C 137.371094 159.707031 159.835938 137.242188 187.5 137.242188 C 215.164062 137.242188 237.628906 159.707031 237.628906 187.371094 C 237.5 215.03125 215.03125 237.5 187.5 237.5 Z M 241.136719 145.683594 C 234.511719 145.683594 229.058594 140.226562 229.058594 133.605469 C 229.058594 126.980469 234.511719 121.527344 241.136719 121.527344 C 247.757812 121.527344 253.214844 126.980469 253.214844 133.605469 C 253.214844 140.355469 247.890625 145.683594 241.136719 145.683594 Z M 241.136719 145.683594 " fill-opacity="1" fill-rule="nonzero"/><g clip-path="url(#e98f158a32)"><path fill="#b7aebd" d="M 187.5 37.5 C 104.644531 37.5 37.5 104.644531 37.5 187.5 C 37.5 270.355469 104.644531 337.5 187.5 337.5 C 270.355469 337.5 337.5 270.355469 337.5 187.5 C 337.371094 104.644531 270.226562 37.5 187.5 37.5 Z M 285.8125 232.175781 C 285.8125 261.785156 261.65625 285.941406 232.046875 285.941406 L 142.824219 285.941406 C 113.214844 285.941406 89.058594 261.785156 89.058594 232.175781 L 89.058594 142.824219 C 89.058594 113.214844 113.214844 89.058594 142.824219 89.058594 L 232.175781 89.058594 C 261.785156 89.058594 285.941406 113.214844 285.941406 142.824219 L 285.941406 232.175781 Z M 285.8125 232.175781 " fill-opacity="1" fill-rule="nonzero"/></g></svg>