<svg xmlns="http://www.w3.org/2000/svg" xmlns:xlink="http://www.w3.org/1999/xlink" zoomAndPan="magnify" preserveAspectRatio="xMidYMid meet" version="1.0" viewBox="5.05 7.3 364.65 18.66"><defs><g/></defs><g fill="#0d2c32" fill-opacity="1"><g transform="translate(4.746098, 25.943567)"><g><path d="M 11.980469 -11.066406 L 16.308594 -0.0117188 L 22.484375 -15.769531 C 23.046875 -17.222656 23.65625 -17.476562 23.65625 -17.476562 L 22.363281 -17.476562 C 22.363281 -17.476562 22.765625 -17.222656 22.207031 -15.769531 L 16.917969 -2.253906 L 11.625 -15.769531 C 11.054688 -17.222656 11.46875 -17.476562 11.46875 -17.476562 L 8.96875 -17.476562 C 8.96875 -17.476562 9.566406 -17.222656 10.140625 -15.769531 L 11.847656 -11.417969 L 8.25 -2.253906 L 2.960938 -15.769531 C 2.402344 -17.222656 2.804688 -17.476562 2.804688 -17.476562 L 0.304688 -17.476562 C 0.304688 -17.476562 0.914062 -17.222656 1.488281 -15.769531 L 7.652344 -0.0117188 Z M 11.980469 -11.066406 "/></g></g></g><g fill="#0d2c32" fill-opacity="1"><g transform="translate(28.950316, 25.943567)"><g><path d="M 2.292969 -18.648438 L 0.304688 -17.878906 C 0.304688 -17.878906 0.816406 -17.636719 0.816406 -16.171875 L 0.816406 -1.621094 C 0.816406 -0.171875 0.304688 0 0.304688 0 C 1.621094 0 2.304688 -0.257812 2.304688 -1.4375 Z M 8.898438 0 L 11.394531 0 C 11.394531 0 10.882812 -0.160156 10.882812 -1.609375 L 10.882812 -9.652344 C 10.882812 -13.625 3.179688 -14.84375 2.390625 -9.398438 C 3.59375 -13.648438 9.398438 -13.613281 9.398438 -9.371094 C 9.398438 -1.621094 9.398438 -1.621094 9.398438 -1.621094 C 9.398438 -0.171875 8.898438 0 8.898438 0 Z M 8.898438 0 "/></g></g></g><g fill="#0d2c32" fill-opacity="1"><g transform="translate(40.893987, 25.943567)"><g><path d="M 1.839844 -6.8125 L 1.839844 -6.972656 L 12.652344 -6.972656 C 12.652344 -11.359375 10.140625 -13.039062 6.691406 -13.039062 C 3.230469 -13.039062 0.304688 -10.347656 0.304688 -6.75 C 0.304688 -3.15625 2.972656 0.0117188 7.152344 0.0117188 C 9.882812 0.0117188 12.054688 -1.816406 12.261719 -3.753906 C 11.417969 0.195312 1.925781 1.023438 1.839844 -6.8125 Z M 6.691406 -12.480469 C 9.871094 -12.480469 11.261719 -10.261719 11.261719 -7.347656 L 1.851562 -7.347656 C 2.058594 -10.335938 4.21875 -12.480469 6.691406 -12.480469 Z M 6.691406 -12.480469 "/></g></g></g><g fill="#0d2c32" fill-opacity="1"><g transform="translate(54.092961, 25.943567)"><g><path d="M 2.363281 -9.398438 C 3.070312 -12.882812 7.800781 -13.539062 8.761719 -10.066406 L 10.078125 -10.382812 C 9.140625 -14.050781 2.558594 -14.089844 2.363281 -9.398438 Z M 0.304688 0 L 2.804688 0 C 2.804688 0 2.304688 -0.160156 2.304688 -1.609375 L 2.292969 -13.054688 L 0.304688 -12.285156 C 0.304688 -12.285156 0.816406 -12.042969 0.816406 -10.589844 L 0.816406 -1.621094 C 0.816406 -0.171875 0.304688 0 0.304688 0 Z M 0.304688 0 "/></g></g></g><g fill="#0d2c32" fill-opacity="1"><g transform="translate(64.720391, 25.943567)"><g><path d="M 1.839844 -6.8125 L 1.839844 -6.972656 L 12.652344 -6.972656 C 12.652344 -11.359375 10.140625 -13.039062 6.691406 -13.039062 C 3.230469 -13.039062 0.304688 -10.347656 0.304688 -6.75 C 0.304688 -3.15625 2.972656 0.0117188 7.152344 0.0117188 C 9.882812 0.0117188 12.054688 -1.816406 12.261719 -3.753906 C 11.417969 0.195312 1.925781 1.023438 1.839844 -6.8125 Z M 6.691406 -12.480469 C 9.871094 -12.480469 11.261719 -10.261719 11.261719 -7.347656 L 1.851562 -7.347656 C 2.058594 -10.335938 4.21875 -12.480469 6.691406 -12.480469 Z M 6.691406 -12.480469 "/></g></g></g><g fill="#0d2c32" fill-opacity="1"><g transform="translate(77.919364, 25.943567)"><g/></g></g><g fill="#0d2c32" fill-opacity="1"><g transform="translate(84.256827, 25.943567)"><g><path d="M 11.640625 -4.730469 C 11.640625 -2.121094 10.066406 -0.425781 6.679688 -0.425781 C 3.046875 -0.425781 1.546875 -3.839844 1.339844 -4.605469 L 0.304688 -2.925781 C 0.683594 -2.242188 2.402344 0 6.667969 0 C 10.921875 0 13.589844 -1.402344 13.589844 -4.9375 C 13.589844 -11.03125 2.730469 -8.703125 2.730469 -13.589844 C 2.730469 -16.171875 4.910156 -17.015625 6.59375 -17.015625 C 11.03125 -17.015625 11.710938 -13.515625 11.710938 -13.515625 L 12.199219 -16.195312 C 12.199219 -16.195312 9.835938 -17.464844 6.777344 -17.464844 C 1.875 -17.464844 1.183594 -14.257812 1.183594 -13.578125 C 1.183594 -7.289062 11.640625 -9.824219 11.640625 -4.730469 Z M 11.640625 -4.730469 "/></g></g></g><g fill="#0d2c32" fill-opacity="1"><g transform="translate(98.39424, 25.943567)"><g><path d="M 2.304688 -3.691406 C 2.304688 -11.445312 2.304688 -11.445312 2.304688 -11.445312 C 2.304688 -12.90625 2.304688 -13.066406 2.304688 -13.066406 L 0.304688 -12.285156 C 0.304688 -12.285156 0.816406 -12.125 0.816406 -10.675781 L 0.816406 -3.414062 C 0.816406 0.5625 8.519531 1.78125 9.324219 -3.667969 C 8.105469 0.585938 2.304688 0.546875 2.304688 -3.691406 Z M 8.898438 0 L 11.394531 0 C 11.394531 0 10.894531 -0.160156 10.894531 -1.609375 L 10.882812 -13.054688 L 8.898438 -12.285156 C 8.898438 -12.285156 9.410156 -12.042969 9.410156 -10.589844 L 9.410156 -1.621094 C 9.410156 -0.171875 8.898438 0 8.898438 0 Z M 8.898438 0 "/></g></g></g><g fill="#0d2c32" fill-opacity="1"><g transform="translate(110.337911, 25.943567)"><g><path d="M 0.304688 -12.273438 C 0.304688 -12.273438 0.816406 -12.027344 0.816406 -10.566406 L 0.816406 -1.621094 C 0.816406 -0.171875 0.304688 0 0.304688 0 C 1.621094 0 2.304688 -0.257812 2.304688 -1.4375 L 2.304688 -13.039062 Z M 8.898438 0 L 11.394531 0 C 11.394531 0 10.882812 -0.160156 10.882812 -1.609375 L 10.882812 -9.652344 C 10.882812 -13.625 3.179688 -14.84375 2.390625 -9.398438 C 3.59375 -13.648438 9.398438 -13.613281 9.398438 -9.371094 C 9.398438 -1.621094 9.398438 -1.621094 9.398438 -1.621094 C 9.398438 -0.171875 8.898438 0 8.898438 0 Z M 8.898438 0 "/></g></g></g><g fill="#0d2c32" fill-opacity="1"><g transform="translate(122.281582, 25.943567)"><g><path d="M 10.140625 -3.449219 C 10.140625 -2.460938 9.53125 -0.316406 6.140625 -0.316406 C 2.5 -0.316406 1.546875 -2.851562 1.339844 -3.425781 L 0.304688 -2.167969 C 0.683594 -1.667969 1.863281 0 6.117188 0 C 10.382812 0 12.078125 -1.558594 12.078125 -3.703125 C 12.078125 -8.226562 2.523438 -6.128906 2.523438 -9.761719 C 2.523438 -11.6875 4.21875 -12.6875 5.898438 -12.6875 C 10.347656 -12.6875 10.40625 -9.945312 10.40625 -9.945312 L 10.882812 -11.945312 C 10.882812 -11.945312 9.152344 -13.027344 6.082031 -13.027344 C 1.183594 -13.027344 0.976562 -10.261719 0.976562 -9.75 C 0.976562 -4.777344 10.140625 -7.070312 10.140625 -3.449219 Z M 10.140625 -3.449219 "/></g></g></g><g fill="#0d2c32" fill-opacity="1"><g transform="translate(134.907745, 25.943567)"><g><path d="M 2.292969 -18.648438 L 0.304688 -17.878906 C 0.304688 -17.878906 0.816406 -17.636719 0.816406 -16.171875 L 0.816406 -1.621094 C 0.816406 -0.171875 0.304688 0 0.304688 0 C 1.621094 0 2.304688 -0.257812 2.304688 -1.4375 Z M 8.898438 0 L 11.394531 0 C 11.394531 0 10.882812 -0.160156 10.882812 -1.609375 L 10.882812 -9.652344 C 10.882812 -13.625 3.179688 -14.84375 2.390625 -9.398438 C 3.59375 -13.648438 9.398438 -13.613281 9.398438 -9.371094 C 9.398438 -1.621094 9.398438 -1.621094 9.398438 -1.621094 C 9.398438 -0.171875 8.898438 0 8.898438 0 Z M 8.898438 0 "/></g></g></g><g fill="#0d2c32" fill-opacity="1"><g transform="translate(146.851417, 25.943567)"><g><path d="M 1.535156 -16.355469 C 0.867188 -16.355469 0.304688 -15.796875 0.304688 -15.113281 C 0.304688 -14.441406 0.867188 -13.894531 1.535156 -13.894531 C 2.21875 -13.894531 2.765625 -14.441406 2.765625 -15.113281 C 2.765625 -15.796875 2.21875 -16.355469 1.535156 -16.355469 Z M 0.425781 0 L 2.925781 0 C 2.925781 0 2.425781 -0.160156 2.425781 -1.609375 L 2.414062 -13.054688 L 0.425781 -12.285156 C 0.425781 -12.285156 0.9375 -12.042969 0.9375 -10.589844 L 0.9375 -1.621094 C 0.9375 -0.171875 0.425781 0 0.425781 0 Z M 0.425781 0 "/></g></g></g><g fill="#0d2c32" fill-opacity="1"><g transform="translate(150.324836, 25.943567)"><g><path d="M 0.304688 -12.273438 C 0.304688 -12.273438 0.816406 -12.027344 0.816406 -10.566406 L 0.816406 -1.621094 C 0.816406 -0.171875 0.304688 0 0.304688 0 C 1.621094 0 2.304688 -0.257812 2.304688 -1.4375 L 2.304688 -13.039062 Z M 8.898438 0 L 11.394531 0 C 11.394531 0 10.882812 -0.160156 10.882812 -1.609375 L 10.882812 -9.652344 C 10.882812 -13.625 3.179688 -14.84375 2.390625 -9.398438 C 3.59375 -13.648438 9.398438 -13.613281 9.398438 -9.371094 C 9.398438 -1.621094 9.398438 -1.621094 9.398438 -1.621094 C 9.398438 -0.171875 8.898438 0 8.898438 0 Z M 8.898438 0 "/></g></g></g><g fill="#0d2c32" fill-opacity="1"><g transform="translate(162.268507, 25.943567)"><g><path d="M 1.839844 -6.8125 L 1.839844 -6.972656 L 12.652344 -6.972656 C 12.652344 -11.359375 10.140625 -13.039062 6.691406 -13.039062 C 3.230469 -13.039062 0.304688 -10.347656 0.304688 -6.75 C 0.304688 -3.15625 2.972656 0.0117188 7.152344 0.0117188 C 9.882812 0.0117188 12.054688 -1.816406 12.261719 -3.753906 C 11.417969 0.195312 1.925781 1.023438 1.839844 -6.8125 Z M 6.691406 -12.480469 C 9.871094 -12.480469 11.261719 -10.261719 11.261719 -7.347656 L 1.851562 -7.347656 C 2.058594 -10.335938 4.21875 -12.480469 6.691406 -12.480469 Z M 6.691406 -12.480469 "/></g></g></g><g fill="#0d2c32" fill-opacity="1"><g transform="translate(175.467481, 25.943567)"><g/></g></g><g fill="#0d2c32" fill-opacity="1"><g transform="translate(181.804944, 25.943567)"><g><path d="M 17.28125 -17.476562 L 15.492188 -17.476562 L 8.898438 -2.023438 L 2.292969 -17.476562 L 0.304688 -17.476562 C 0.304688 -17.476562 1.023438 -17.136719 1.023438 -15.855469 L 1.023438 -1.707031 C 1.023438 -0.257812 0.523438 -0.0117188 0.523438 -0.0117188 L 1.816406 -0.0117188 C 1.816406 -0.0117188 1.304688 -0.257812 1.304688 -1.707031 C 1.304688 -1.707031 1.316406 -16.136719 1.316406 -16.257812 C 1.378906 -16.136719 8.410156 -0.0117188 8.410156 -0.0117188 C 8.410156 -0.0117188 15.222656 -16.148438 15.28125 -16.28125 L 15.28125 -1.707031 C 15.28125 -0.257812 14.785156 -0.0117188 14.785156 -0.0117188 L 17.28125 -0.0117188 C 17.28125 -0.0117188 16.769531 -0.257812 16.769531 -1.707031 L 16.769531 -15.867188 C 16.769531 -17.320312 17.28125 -17.476562 17.28125 -17.476562 Z M 17.28125 -17.476562 "/></g></g></g><g fill="#0d2c32" fill-opacity="1"><g transform="translate(199.635124, 25.943567)"><g><path d="M 1.839844 -6.8125 L 1.839844 -6.972656 L 12.652344 -6.972656 C 12.652344 -11.359375 10.140625 -13.039062 6.691406 -13.039062 C 3.230469 -13.039062 0.304688 -10.347656 0.304688 -6.75 C 0.304688 -3.15625 2.972656 0.0117188 7.152344 0.0117188 C 9.882812 0.0117188 12.054688 -1.816406 12.261719 -3.753906 C 11.417969 0.195312 1.925781 1.023438 1.839844 -6.8125 Z M 6.691406 -12.480469 C 9.871094 -12.480469 11.261719 -10.261719 11.261719 -7.347656 L 1.851562 -7.347656 C 2.058594 -10.335938 4.21875 -12.480469 6.691406 -12.480469 Z M 6.691406 -12.480469 "/></g></g></g><g fill="#0d2c32" fill-opacity="1"><g transform="translate(212.834098, 25.943567)"><g><path d="M 1.839844 -6.8125 L 1.839844 -6.972656 L 12.652344 -6.972656 C 12.652344 -11.359375 10.140625 -13.039062 6.691406 -13.039062 C 3.230469 -13.039062 0.304688 -10.347656 0.304688 -6.75 C 0.304688 -3.15625 2.972656 0.0117188 7.152344 0.0117188 C 9.882812 0.0117188 12.054688 -1.816406 12.261719 -3.753906 C 11.417969 0.195312 1.925781 1.023438 1.839844 -6.8125 Z M 6.691406 -12.480469 C 9.871094 -12.480469 11.261719 -10.261719 11.261719 -7.347656 L 1.851562 -7.347656 C 2.058594 -10.335938 4.21875 -12.480469 6.691406 -12.480469 Z M 6.691406 -12.480469 "/></g></g></g><g fill="#0d2c32" fill-opacity="1"><g transform="translate(226.033072, 25.943567)"><g><path d="M 3.546875 -13.039062 L 3.546875 -16.464844 L 1.558594 -15.699219 C 1.558594 -15.699219 2.070312 -15.453125 2.070312 -14.003906 C 2.070312 -14.003906 2.070312 -13.699219 2.070312 -13.039062 L 0.304688 -13.039062 L 0.304688 -12.625 L 2.070312 -12.625 C 2.070312 -10.90625 2.070312 -7.496094 2.070312 -1.914062 C 2.070312 -0.257812 3.277344 0 3.667969 0 C 4.460938 0 5.132812 -0.523438 5.132812 -1.316406 C 4.921875 -0.792969 3.535156 -0.546875 3.558594 -1.902344 L 3.546875 -12.625 L 5.679688 -12.625 L 5.679688 -13.039062 Z M 3.546875 -13.039062 "/></g></g></g><g fill="#0d2c32" fill-opacity="1"><g transform="translate(232.260854, 25.943567)"><g><path d="M 10.140625 -3.449219 C 10.140625 -2.460938 9.53125 -0.316406 6.140625 -0.316406 C 2.5 -0.316406 1.546875 -2.851562 1.339844 -3.425781 L 0.304688 -2.167969 C 0.683594 -1.667969 1.863281 0 6.117188 0 C 10.382812 0 12.078125 -1.558594 12.078125 -3.703125 C 12.078125 -8.226562 2.523438 -6.128906 2.523438 -9.761719 C 2.523438 -11.6875 4.21875 -12.6875 5.898438 -12.6875 C 10.347656 -12.6875 10.40625 -9.945312 10.40625 -9.945312 L 10.882812 -11.945312 C 10.882812 -11.945312 9.152344 -13.027344 6.082031 -13.027344 C 1.183594 -13.027344 0.976562 -10.261719 0.976562 -9.75 C 0.976562 -4.777344 10.140625 -7.070312 10.140625 -3.449219 Z M 10.140625 -3.449219 "/></g></g></g><g fill="#0d2c32" fill-opacity="1"><g transform="translate(244.887029, 25.943567)"><g/></g></g><g fill="#0d2c32" fill-opacity="1"><g transform="translate(251.224492, 25.943567)"><g><path d="M 11.640625 -4.730469 C 11.640625 -2.121094 10.066406 -0.425781 6.679688 -0.425781 C 3.046875 -0.425781 1.546875 -3.839844 1.339844 -4.605469 L 0.304688 -2.925781 C 0.683594 -2.242188 2.402344 0 6.667969 0 C 10.921875 0 13.589844 -1.402344 13.589844 -4.9375 C 13.589844 -11.03125 2.730469 -8.703125 2.730469 -13.589844 C 2.730469 -16.171875 4.910156 -17.015625 6.59375 -17.015625 C 11.03125 -17.015625 11.710938 -13.515625 11.710938 -13.515625 L 12.199219 -16.195312 C 12.199219 -16.195312 9.835938 -17.464844 6.777344 -17.464844 C 1.875 -17.464844 1.183594 -14.257812 1.183594 -13.578125 C 1.183594 -7.289062 11.640625 -9.824219 11.640625 -4.730469 Z M 11.640625 -4.730469 "/></g></g></g><g fill="#0d2c32" fill-opacity="1"><g transform="translate(265.361904, 25.943567)"><g><path d="M 0.304688 -12.273438 C 0.304688 -12.273438 0.816406 -12.027344 0.816406 -10.566406 L 0.816406 -1.621094 C 0.816406 -0.171875 0.304688 0 0.304688 0 C 1.621094 0 2.304688 -0.257812 2.304688 -1.4375 L 2.304688 -13.039062 Z M 8.898438 0 L 11.394531 0 C 11.394531 0 10.882812 -0.160156 10.882812 -1.609375 L 10.882812 -9.652344 C 10.882812 -13.625 3.179688 -14.84375 2.390625 -9.398438 C 3.59375 -13.648438 9.398438 -13.613281 9.398438 -9.371094 C 9.398438 -1.621094 9.398438 -1.621094 9.398438 -1.621094 C 9.398438 -0.171875 8.898438 0 8.898438 0 Z M 8.898438 0 "/></g></g></g><g fill="#0d2c32" fill-opacity="1"><g transform="translate(277.305575, 25.943567)"><g><path d="M 6.570312 -13.039062 C 3.109375 -13.039062 0.304688 -10.101562 0.304688 -6.507812 C 0.304688 -2.914062 3.109375 0.0117188 6.570312 0.0117188 C 10.03125 0.0117188 12.832031 -2.914062 12.832031 -6.507812 C 12.832031 -10.101562 10.03125 -13.039062 6.570312 -13.039062 Z M 6.570312 -0.546875 C 3.960938 -0.546875 1.839844 -3.304688 1.839844 -6.570312 C 1.839844 -9.835938 3.960938 -12.480469 6.570312 -12.480469 C 9.175781 -12.480469 11.296875 -9.835938 11.296875 -6.570312 C 11.296875 -3.304688 9.175781 -0.546875 6.570312 -0.546875 Z M 6.570312 -0.546875 "/></g></g></g><g fill="#0d2c32" fill-opacity="1"><g transform="translate(290.687379, 25.943567)"><g><path d="M 9.203125 -8.386719 L 12.492188 0 L 16.941406 -11.335938 C 17.5 -12.785156 18.109375 -13.039062 18.109375 -13.039062 L 16.820312 -13.039062 C 16.820312 -13.039062 17.222656 -12.785156 16.660156 -11.335938 L 13.089844 -2.242188 L 9.53125 -11.335938 C 8.96875 -12.785156 9.371094 -13.039062 9.371094 -13.039062 L 6.875 -13.039062 C 6.875 -13.039062 7.484375 -12.785156 8.054688 -11.335938 L 9.066406 -8.738281 L 6.519531 -2.242188 L 2.960938 -11.335938 C 2.402344 -12.785156 2.804688 -13.039062 2.804688 -13.039062 L 0.304688 -13.039062 C 0.304688 -13.039062 0.914062 -12.785156 1.476562 -11.335938 L 5.921875 0 Z M 9.203125 -8.386719 "/></g></g></g><g fill="#0d2c32" fill-opacity="1"><g transform="translate(309.346329, 25.943567)"><g><path d="M 2.046875 -13.039062 L 0.304688 -13.039062 L 0.304688 -12.566406 L 2.046875 -12.566406 L 2.046875 -1.621094 C 2.046875 -0.171875 1.535156 0 1.535156 0 L 4.035156 0 C 4.035156 0 3.523438 -0.160156 3.523438 -1.609375 L 3.523438 -12.566406 L 6.496094 -12.566406 L 6.496094 -13.039062 L 3.523438 -13.039062 C 3.523438 -16.550781 5.179688 -17.039062 5.933594 -17 C 6.921875 -16.941406 7.289062 -16.246094 7.484375 -15.769531 C 7.761719 -15.074219 9.285156 -15.378906 8.933594 -16.171875 C 8.566406 -17 7.519531 -17.488281 6.128906 -17.488281 C 3.535156 -17.488281 2.046875 -15.636719 2.046875 -13.039062 Z M 2.046875 -13.039062 "/></g></g></g><g fill="#0d2c32" fill-opacity="1"><g transform="translate(316.402847, 25.943567)"><g><path d="M 0.816406 -16.171875 L 0.816406 -1.621094 C 0.816406 -0.171875 0.304688 0 0.304688 0 L 2.804688 0 C 2.804688 0 2.304688 -0.160156 2.304688 -1.609375 L 2.292969 -18.648438 L 0.304688 -17.878906 C 0.304688 -17.878906 0.816406 -17.625 0.816406 -16.171875 Z M 0.816406 -16.171875 "/></g></g></g><g fill="#0d2c32" fill-opacity="1"><g transform="translate(319.754386, 25.943567)"><g><path d="M 10.273438 -5.421875 C 10.273438 -2.972656 8.640625 -0.695312 5.703125 -0.695312 C 3.351562 -0.695312 1.851562 -1.875 1.851562 -4.230469 C 1.851562 -8.910156 9.6875 -7.996094 10.199219 -9.398438 C 9.164062 -7.96875 0.304688 -9.640625 0.304688 -3.765625 C 0.304688 -2.4375 1.390625 0 5.386719 0 C 8.128906 0 9.554688 -1.621094 10.273438 -3.253906 L 10.273438 -1.621094 C 10.273438 -0.144531 11.210938 0 12.261719 0 C 12.261719 0 11.761719 -0.160156 11.761719 -1.609375 L 11.761719 -8.738281 C 11.773438 -10.96875 11.140625 -13.054688 7.042969 -13.054688 C 4.8125 -13.054688 2.570312 -12.273438 1.460938 -9.945312 L 2.765625 -9.078125 C 3.265625 -11.226562 4.910156 -12.652344 7.03125 -12.652344 C 9.933594 -12.652344 10.273438 -10.699219 10.273438 -8.726562 Z M 10.273438 -5.421875 "/></g></g></g><g fill="#0d2c32" fill-opacity="1"><g transform="translate(332.563369, 25.943567)"><g><path d="M 2.304688 -4.484375 L 2.292969 -18.648438 L 0.304688 -17.878906 C 0.304688 -17.878906 0.816406 -17.625 0.816406 -16.171875 L 0.816406 -1.621094 C 0.816406 -0.171875 0.304688 0 0.304688 0 L 2.804688 0 C 2.804688 0 2.304688 -0.160156 2.304688 -1.609375 L 2.304688 -4.179688 L 4.617188 -6.714844 L 7.957031 -1.621094 C 8.910156 -0.171875 8.507812 0 8.507812 0 L 11.003906 0 C 11.003906 0 10.394531 -0.160156 9.445312 -1.609375 L 5.484375 -7.652344 L 8.933594 -11.417969 C 9.980469 -12.578125 11.308594 -13.027344 11.308594 -13.027344 L 9.285156 -13.027344 C 9.285156 -13.027344 9.457031 -12.308594 8.640625 -11.40625 Z M 2.304688 -4.484375 "/></g></g></g><g fill="#0d2c32" fill-opacity="1"><g transform="translate(344.421736, 25.943567)"><g><path d="M 1.839844 -6.8125 L 1.839844 -6.972656 L 12.652344 -6.972656 C 12.652344 -11.359375 10.140625 -13.039062 6.691406 -13.039062 C 3.230469 -13.039062 0.304688 -10.347656 0.304688 -6.75 C 0.304688 -3.15625 2.972656 0.0117188 7.152344 0.0117188 C 9.882812 0.0117188 12.054688 -1.816406 12.261719 -3.753906 C 11.417969 0.195312 1.925781 1.023438 1.839844 -6.8125 Z M 6.691406 -12.480469 C 9.871094 -12.480469 11.261719 -10.261719 11.261719 -7.347656 L 1.851562 -7.347656 C 2.058594 -10.335938 4.21875 -12.480469 6.691406 -12.480469 Z M 6.691406 -12.480469 "/></g></g></g><g fill="#0d2c32" fill-opacity="1"><g transform="translate(357.62071, 25.943567)"><g><path d="M 10.140625 -3.449219 C 10.140625 -2.460938 9.53125 -0.316406 6.140625 -0.316406 C 2.5 -0.316406 1.546875 -2.851562 1.339844 -3.425781 L 0.304688 -2.167969 C 0.683594 -1.667969 1.863281 0 6.117188 0 C 10.382812 0 12.078125 -1.558594 12.078125 -3.703125 C 12.078125 -8.226562 2.523438 -6.128906 2.523438 -9.761719 C 2.523438 -11.6875 4.21875 -12.6875 5.898438 -12.6875 C 10.347656 -12.6875 10.40625 -9.945312 10.40625 -9.945312 L 10.882812 -11.945312 C 10.882812 -11.945312 9.152344 -13.027344 6.082031 -13.027344 C 1.183594 -13.027344 0.976562 -10.261719 0.976562 -9.75 C 0.976562 -4.777344 10.140625 -7.070312 10.140625 -3.449219 Z M 10.140625 -3.449219 "/></g></g></g></svg>