<svg xmlns="http://www.w3.org/2000/svg" xmlns:xlink="http://www.w3.org/1999/xlink" zoomAndPan="magnify" preserveAspectRatio="xMidYMid meet" version="1.0" viewBox="81.71 7.47 211.33 16.84"><defs><g/></defs><g fill="#dacad4" fill-opacity="1"><g transform="translate(81.440184, 24.290736)"><g><path d="M 5.90625 -7.277344 L 5.90625 -1.460938 C 5.90625 -0.152344 5.441406 -0.0117188 5.441406 -0.0117188 L 7.695312 -0.0117188 C 7.695312 -0.0117188 7.234375 -0.144531 7.234375 -1.453125 L 7.234375 -7.324219 L 11.488281 -14.316406 C 12.292969 -15.625 12.832031 -15.765625 12.832031 -15.765625 L 11.664062 -15.765625 C 11.664062 -15.765625 12.027344 -15.613281 11.238281 -14.304688 L 7.101562 -7.507812 L 3.011719 -14.226562 C 2.210938 -15.535156 2.527344 -15.765625 2.527344 -15.765625 L 0.273438 -15.765625 C 0.273438 -15.765625 0.867188 -15.535156 1.671875 -14.226562 Z M 5.90625 -7.277344 "/></g></g></g><g fill="#dacad4" fill-opacity="1"><g transform="translate(94.762766, 24.290736)"><g><path d="M 5.925781 -11.765625 C 2.804688 -11.765625 0.273438 -9.113281 0.273438 -5.871094 C 0.273438 -2.628906 2.804688 0.0117188 5.925781 0.0117188 C 9.050781 0.0117188 11.578125 -2.628906 11.578125 -5.871094 C 11.578125 -9.113281 9.050781 -11.765625 5.925781 -11.765625 Z M 5.925781 -0.496094 C 3.574219 -0.496094 1.660156 -2.980469 1.660156 -5.925781 C 1.660156 -8.871094 3.574219 -11.257812 5.925781 -11.257812 C 8.277344 -11.257812 10.191406 -8.871094 10.191406 -5.925781 C 10.191406 -2.980469 8.277344 -0.496094 5.925781 -0.496094 Z M 5.925781 -0.496094 "/></g></g></g><g fill="#dacad4" fill-opacity="1"><g transform="translate(106.83223, 24.290736)"><g><path d="M 2.078125 -3.332031 C 2.078125 -10.324219 2.078125 -10.324219 2.078125 -10.324219 C 2.078125 -11.644531 2.078125 -11.785156 2.078125 -11.785156 L 0.273438 -11.082031 C 0.273438 -11.082031 0.738281 -10.941406 0.738281 -9.632812 L 0.738281 -3.078125 C 0.738281 0.503906 7.683594 1.605469 8.410156 -3.308594 C 7.3125 0.527344 2.078125 0.496094 2.078125 -3.332031 Z M 8.027344 0 L 10.28125 0 C 10.28125 0 9.828125 -0.144531 9.828125 -1.453125 L 9.820312 -11.777344 L 8.027344 -11.082031 C 8.027344 -11.082031 8.488281 -10.863281 8.488281 -9.554688 L 8.488281 -1.460938 C 8.488281 -0.152344 8.027344 0 8.027344 0 Z M 8.027344 0 "/></g></g></g><g fill="#dacad4" fill-opacity="1"><g transform="translate(117.60461, 24.290736)"><g><path d="M 2.132812 -8.476562 C 2.769531 -11.621094 7.035156 -12.214844 7.90625 -9.082031 L 9.09375 -9.367188 C 8.246094 -12.675781 2.308594 -12.710938 2.132812 -8.476562 Z M 0.273438 0 L 2.527344 0 C 2.527344 0 2.078125 -0.144531 2.078125 -1.453125 L 2.066406 -11.777344 L 0.273438 -11.082031 C 0.273438 -11.082031 0.738281 -10.863281 0.738281 -9.554688 L 0.738281 -1.460938 C 0.738281 -0.152344 0.273438 0 0.273438 0 Z M 0.273438 0 "/></g></g></g><g fill="#dacad4" fill-opacity="1"><g transform="translate(127.189838, 24.290736)"><g/></g></g><g fill="#dacad4" fill-opacity="1"><g transform="translate(132.905795, 24.290736)"><g><path d="M 6.058594 -7.695312 L 6.058594 -10.292969 C 6.058594 -10.292969 5.617188 -9.179688 3.417969 -9.179688 L 2.078125 -9.179688 L 2.078125 -14.316406 C 2.078125 -14.789062 2.132812 -15.117188 2.210938 -15.328125 L 4.902344 -15.328125 C 10.050781 -15.328125 10.652344 -13.667969 10.652344 -13.667969 L 10.203125 -15.765625 L 0.273438 -15.765625 C 0.273438 -15.765625 0.738281 -15.613281 0.738281 -14.304688 L 0.738281 -1.539062 C 0.738281 -0.230469 0.273438 -0.0117188 0.273438 -0.0117188 L 10.203125 -0.0117188 L 10.652344 -2.101562 C 10.652344 -2.101562 10.050781 -0.441406 4.902344 -0.441406 L 2.230469 -0.441406 C 2.144531 -0.671875 2.078125 -1.023438 2.078125 -1.539062 L 2.078125 -8.808594 L 3.417969 -8.808594 C 5.617188 -8.808594 6.058594 -7.695312 6.058594 -7.695312 Z M 6.058594 -7.695312 "/></g></g></g><g fill="#dacad4" fill-opacity="1"><g transform="translate(144.051916, 24.290736)"><g><path d="M 0.273438 -11.070312 C 0.273438 -11.070312 0.738281 -10.851562 0.738281 -9.53125 L 0.738281 -1.460938 C 0.738281 -0.152344 0.273438 0 0.273438 0 C 1.460938 0 2.078125 -0.230469 2.078125 -1.296875 L 2.078125 -11.765625 Z M 8.027344 0 L 10.28125 0 C 10.28125 0 9.820312 -0.144531 9.820312 -1.453125 L 9.820312 -8.707031 C 9.820312 -12.292969 2.871094 -13.390625 2.15625 -8.476562 C 3.242188 -12.3125 8.476562 -12.28125 8.476562 -8.457031 C 8.476562 -1.460938 8.476562 -1.460938 8.476562 -1.460938 C 8.476562 -0.152344 8.027344 0 8.027344 0 Z M 8.027344 0 "/></g></g></g><g fill="#dacad4" fill-opacity="1"><g transform="translate(154.824297, 24.290736)"><g><path d="M 10.226562 -3.089844 C 9.179688 0.515625 1.660156 0.8125 1.660156 -5.925781 C 1.660156 -8.871094 3.574219 -11.257812 5.925781 -11.257812 C 7.554688 -11.257812 9.105469 -10.433594 9.6875 -8.457031 L 10.566406 -9.585938 C 9.851562 -10.828125 7.925781 -11.753906 5.925781 -11.753906 C 2.816406 -11.753906 0.273438 -9.113281 0.273438 -5.871094 C 0.273438 -2.175781 2.816406 0.0117188 5.925781 0.0117188 C 7.574219 0.0117188 9.554688 -0.703125 10.226562 -3.089844 Z M 10.226562 -3.089844 "/></g></g></g><g fill="#dacad4" fill-opacity="1"><g transform="translate(165.882481, 24.290736)"><g><path d="M 2.066406 -16.824219 L 0.273438 -16.128906 C 0.273438 -16.128906 0.738281 -15.910156 0.738281 -14.589844 L 0.738281 -1.460938 C 0.738281 -0.152344 0.273438 0 0.273438 0 C 1.460938 0 2.078125 -0.230469 2.078125 -1.296875 Z M 8.027344 0 L 10.28125 0 C 10.28125 0 9.820312 -0.144531 9.820312 -1.453125 L 9.820312 -8.707031 C 9.820312 -12.292969 2.871094 -13.390625 2.15625 -8.476562 C 3.242188 -12.3125 8.476562 -12.28125 8.476562 -8.457031 C 8.476562 -1.460938 8.476562 -1.460938 8.476562 -1.460938 C 8.476562 -0.152344 8.027344 0 8.027344 0 Z M 8.027344 0 "/></g></g></g><g fill="#dacad4" fill-opacity="1"><g transform="translate(176.654861, 24.290736)"><g><path d="M 9.269531 -4.894531 C 9.269531 -2.683594 7.796875 -0.625 5.144531 -0.625 C 3.023438 -0.625 1.671875 -1.691406 1.671875 -3.816406 C 1.671875 -8.039062 8.742188 -7.210938 9.203125 -8.476562 C 8.269531 -7.191406 0.273438 -8.695312 0.273438 -3.398438 C 0.273438 -2.199219 1.253906 0 4.859375 0 C 7.332031 0 8.621094 -1.460938 9.269531 -2.9375 L 9.269531 -1.460938 C 9.269531 -0.132812 10.117188 0 11.0625 0 C 11.0625 0 10.609375 -0.144531 10.609375 -1.453125 L 10.609375 -7.882812 C 10.621094 -9.894531 10.050781 -11.777344 6.355469 -11.777344 C 4.34375 -11.777344 2.320312 -11.070312 1.320312 -8.972656 L 2.496094 -8.191406 C 2.945312 -10.125 4.429688 -11.414062 6.34375 -11.414062 C 8.960938 -11.414062 9.269531 -9.652344 9.269531 -7.871094 Z M 9.269531 -4.894531 "/></g></g></g><g fill="#dacad4" fill-opacity="1"><g transform="translate(188.207694, 24.290736)"><g><path d="M 0.273438 -11.070312 C 0.273438 -11.070312 0.738281 -10.851562 0.738281 -9.53125 L 0.738281 -1.460938 C 0.738281 -0.152344 0.273438 0 0.273438 0 C 1.460938 0 2.078125 -0.230469 2.078125 -1.296875 L 2.078125 -11.765625 Z M 8.027344 0 L 10.28125 0 C 10.28125 0 9.820312 -0.144531 9.820312 -1.453125 L 9.820312 -8.707031 C 9.820312 -12.292969 2.871094 -13.390625 2.15625 -8.476562 C 3.242188 -12.3125 8.476562 -12.28125 8.476562 -8.457031 C 8.476562 -1.460938 8.476562 -1.460938 8.476562 -1.460938 C 8.476562 -0.152344 8.027344 0 8.027344 0 Z M 8.027344 0 "/></g></g></g><g fill="#dacad4" fill-opacity="1"><g transform="translate(198.980074, 24.290736)"><g><path d="M 3.199219 -11.765625 L 3.199219 -14.855469 L 1.40625 -14.160156 C 1.40625 -14.160156 1.871094 -13.941406 1.871094 -12.632812 C 1.871094 -12.632812 1.871094 -12.359375 1.871094 -11.765625 L 0.273438 -11.765625 L 0.273438 -11.390625 L 1.871094 -11.390625 C 1.871094 -9.839844 1.871094 -6.761719 1.871094 -1.726562 C 1.871094 -0.230469 2.957031 0 3.308594 0 C 4.023438 0 4.628906 -0.472656 4.628906 -1.1875 C 4.441406 -0.714844 3.1875 -0.496094 3.210938 -1.714844 L 3.199219 -11.390625 L 5.125 -11.390625 L 5.125 -11.765625 Z M 3.199219 -11.765625 "/></g></g></g><g fill="#dacad4" fill-opacity="1"><g transform="translate(204.597097, 24.290736)"><g><path d="M 1.660156 -6.144531 L 1.660156 -6.289062 L 11.414062 -6.289062 C 11.414062 -10.246094 9.148438 -11.765625 6.035156 -11.765625 C 2.914062 -11.765625 0.273438 -9.335938 0.273438 -6.089844 C 0.273438 -2.847656 2.683594 0.0117188 6.453125 0.0117188 C 8.917969 0.0117188 10.875 -1.636719 11.0625 -3.386719 C 10.300781 0.175781 1.738281 0.921875 1.660156 -6.144531 Z M 6.035156 -11.257812 C 8.90625 -11.257812 10.160156 -9.257812 10.160156 -6.628906 L 1.671875 -6.628906 C 1.859375 -9.324219 3.804688 -11.257812 6.035156 -11.257812 Z M 6.035156 -11.257812 "/></g></g></g><g fill="#dacad4" fill-opacity="1"><g transform="translate(216.501676, 24.290736)"><g><path d="M 9.664062 -4.671875 C 9.664062 -2.5625 8.445312 -0.460938 5.726562 -0.460938 C 3.859375 -0.460938 1.671875 -1.925781 1.671875 -5.882812 C 1.671875 -13.425781 8.753906 -12.402344 9.578125 -8.476562 C 9.355469 -13.699219 0.273438 -13.535156 0.273438 -5.914062 C 0.273438 -2.320312 2.539062 0 5.839844 0 C 7.542969 0 8.917969 -0.726562 9.652344 -1.847656 L 9.652344 -1.296875 C 9.652344 -0.230469 10.269531 0 11.457031 0 C 11.457031 0 10.996094 -0.152344 10.996094 -1.460938 L 10.996094 -14.589844 C 10.996094 -15.898438 11.457031 -16.128906 11.457031 -16.128906 L 9.664062 -16.824219 Z M 9.664062 -4.671875 "/></g></g></g><g fill="#dacad4" fill-opacity="1"><g transform="translate(228.450222, 24.290736)"><g/></g></g><g fill="#dacad4" fill-opacity="1"><g transform="translate(234.16618, 24.290736)"><g><path d="M 6.90625 -0.0117188 L 12.46875 -14.226562 C 12.984375 -15.535156 13.523438 -15.765625 13.523438 -15.765625 L 12.359375 -15.765625 C 12.359375 -15.765625 12.730469 -15.535156 12.214844 -14.226562 L 7.445312 -2.035156 L 2.671875 -14.226562 C 2.164062 -15.535156 2.527344 -15.765625 2.527344 -15.765625 L 0.273438 -15.765625 C 0.273438 -15.765625 0.824219 -15.535156 1.332031 -14.226562 Z M 6.90625 -0.0117188 "/></g></g></g><g fill="#dacad4" fill-opacity="1"><g transform="translate(248.181266, 24.290736)"><g><path d="M 1.660156 -6.144531 L 1.660156 -6.289062 L 11.414062 -6.289062 C 11.414062 -10.246094 9.148438 -11.765625 6.035156 -11.765625 C 2.914062 -11.765625 0.273438 -9.335938 0.273438 -6.089844 C 0.273438 -2.847656 2.683594 0.0117188 6.453125 0.0117188 C 8.917969 0.0117188 10.875 -1.636719 11.0625 -3.386719 C 10.300781 0.175781 1.738281 0.921875 1.660156 -6.144531 Z M 6.035156 -11.257812 C 8.90625 -11.257812 10.160156 -9.257812 10.160156 -6.628906 L 1.671875 -6.628906 C 1.859375 -9.324219 3.804688 -11.257812 6.035156 -11.257812 Z M 6.035156 -11.257812 "/></g></g></g><g fill="#dacad4" fill-opacity="1"><g transform="translate(260.085844, 24.290736)"><g><path d="M 0.273438 -11.070312 C 0.273438 -11.070312 0.738281 -10.851562 0.738281 -9.53125 L 0.738281 -1.460938 C 0.738281 -0.152344 0.273438 0 0.273438 0 C 1.460938 0 2.078125 -0.230469 2.078125 -1.296875 L 2.078125 -11.765625 Z M 8.027344 0 L 10.28125 0 C 10.28125 0 9.820312 -0.144531 9.820312 -1.453125 L 9.820312 -8.707031 C 9.820312 -12.292969 2.871094 -13.390625 2.15625 -8.476562 C 3.242188 -12.3125 8.476562 -12.28125 8.476562 -8.457031 C 8.476562 -1.460938 8.476562 -1.460938 8.476562 -1.460938 C 8.476562 -0.152344 8.027344 0 8.027344 0 Z M 8.027344 0 "/></g></g></g><g fill="#dacad4" fill-opacity="1"><g transform="translate(270.858224, 24.290736)"><g><path d="M 2.078125 -3.332031 C 2.078125 -10.324219 2.078125 -10.324219 2.078125 -10.324219 C 2.078125 -11.644531 2.078125 -11.785156 2.078125 -11.785156 L 0.273438 -11.082031 C 0.273438 -11.082031 0.738281 -10.941406 0.738281 -9.632812 L 0.738281 -3.078125 C 0.738281 0.503906 7.683594 1.605469 8.410156 -3.308594 C 7.3125 0.527344 2.078125 0.496094 2.078125 -3.332031 Z M 8.027344 0 L 10.28125 0 C 10.28125 0 9.828125 -0.144531 9.828125 -1.453125 L 9.820312 -11.777344 L 8.027344 -11.082031 C 8.027344 -11.082031 8.488281 -10.863281 8.488281 -9.554688 L 8.488281 -1.460938 C 8.488281 -0.152344 8.027344 0 8.027344 0 Z M 8.027344 0 "/></g></g></g><g fill="#dacad4" fill-opacity="1"><g transform="translate(281.630616, 24.290736)"><g><path d="M 1.660156 -6.144531 L 1.660156 -6.289062 L 11.414062 -6.289062 C 11.414062 -10.246094 9.148438 -11.765625 6.035156 -11.765625 C 2.914062 -11.765625 0.273438 -9.335938 0.273438 -6.089844 C 0.273438 -2.847656 2.683594 0.0117188 6.453125 0.0117188 C 8.917969 0.0117188 10.875 -1.636719 11.0625 -3.386719 C 10.300781 0.175781 1.738281 0.921875 1.660156 -6.144531 Z M 6.035156 -11.257812 C 8.90625 -11.257812 10.160156 -9.257812 10.160156 -6.628906 L 1.671875 -6.628906 C 1.859375 -9.324219 3.804688 -11.257812 6.035156 -11.257812 Z M 6.035156 -11.257812 "/></g></g></g></svg>