<svg xmlns="http://www.w3.org/2000/svg" xmlns:xlink="http://www.w3.org/1999/xlink" width="500" zoomAndPan="magnify" viewBox="0 0 375 374.999991" height="500" preserveAspectRatio="xMidYMid meet" version="1.0"><defs><clipPath id="fdacf07be2"><path d="M 37.5 37.5 L 337.5 37.5 L 337.5 337.5 L 37.5 337.5 Z M 37.5 37.5 " clip-rule="nonzero"/></clipPath></defs><g clip-path="url(#fdacf07be2)"><path fill="#b7aebd" d="M 187.5 37.5 C 104.644531 37.5 37.5 104.644531 37.5 187.5 C 37.5 270.355469 104.644531 337.5 187.5 337.5 C 270.355469 337.5 337.5 270.355469 337.5 187.5 C 337.371094 104.644531 270.226562 37.5 187.5 37.5 Z M 273.863281 229.449219 C 272.175781 240.488281 262.566406 248.539062 251.394531 248.539062 L 123.472656 248.539062 C 112.304688 248.539062 102.695312 240.488281 101.007812 229.449219 C 99.449219 219.1875 97.890625 204.902344 97.757812 187.371094 C 97.890625 169.835938 99.316406 155.683594 101.007812 145.292969 C 102.695312 134.253906 112.304688 126.203125 123.472656 126.203125 L 251.394531 126.203125 C 262.566406 126.203125 272.175781 134.253906 273.863281 145.292969 C 275.421875 155.550781 276.980469 169.835938 277.109375 187.371094 C 276.980469 204.902344 275.421875 219.1875 273.863281 229.449219 Z M 273.863281 229.449219 " fill-opacity="1" fill-rule="nonzero"/></g><path fill="#b7aebd" d="M 168.539062 163.085938 L 168.539062 211.785156 L 213.863281 187.5 Z M 168.539062 163.085938 " fill-opacity="1" fill-rule="nonzero"/></svg>